PathFileType	4	(X/Y/Z)	C:\Users\Biomechanik\SynologyDrive\AlexP\Athlete_03\Athlete_3_25_03_31\Squat_bw_01\marker_experimental.trc
DataRate	CameraRate	NumFrames	NumMarkers	Units	OrigDataRate	OrigDataStartFrame	OrigNumFrames
200.000000	200.000000	4	55	mm	200.000000	442	708
Frame#	Time	BL			BR			GLAB			RFHD			LFHD			C7			T6			SPINMOL			SPINM2			SPINM3			T12			BELTOL			BELT2			BELT3			SACROL			SACR2			SACR3			LTHOL			LTH2			LTH3			LSHAOL			LSHA2			LSHA3			LHEE			LTOE			LM5			RTHOL			RTH2			RTH3			RSHAOL			RSHA2			RSHA3			RHEE			RTOE			RM5			STRN			XIPH			LACR			LUAOL			LUA2			LUA3			LLAOL			LLA2			LLA3			LWRR			LWRU			RACR			RUAOL			RUA2			RUA3			RLAOL			RLA2			RLA3			RWRR			RWRU			
		X1	Y1	Z1	X2	Y2	Z2	X3	Y3	Z3	X4	Y4	Z4	X5	Y5	Z5	X6	Y6	Z6	X7	Y7	Z7	X8	Y8	Z8	X9	Y9	Z9	X10	Y10	Z10	X11	Y11	Z11	X12	Y12	Z12	X13	Y13	Z13	X14	Y14	Z14	X15	Y15	Z15	X16	Y16	Z16	X17	Y17	Z17	X18	Y18	Z18	X19	Y19	Z19	X20	Y20	Z20	X21	Y21	Z21	X22	Y22	Z22	X23	Y23	Z23	X24	Y24	Z24	X25	Y25	Z25	X26	Y26	Z26	X27	Y27	Z27	X28	Y28	Z28	X29	Y29	Z29	X30	Y30	Z30	X31	Y31	Z31	X32	Y32	Z32	X33	Y33	Z33	X34	Y34	Z34	X35	Y35	Z35	X36	Y36	Z36	X37	Y37	Z37	X38	Y38	Z38	X39	Y39	Z39	X40	Y40	Z40	X41	Y41	Z41	X42	Y42	Z42	X43	Y43	Z43	X44	Y44	Z44	X45	Y45	Z45	X46	Y46	Z46	X47	Y47	Z47	X48	Y48	Z48	X49	Y49	Z49	X50	Y50	Z50	X51	Y51	Z51	X52	Y52	Z52	X53	Y53	Z53	X54	Y54	Z54	X55	Y55	Z55	

443	2.21	960.6973876953125	36.22543716430676	-1933.541870117188	1063.1875	32.89416885375976	86.65153503417969	573.6687622070312	911.0915527343751	-1196.87255859375	529.4751586914062	947.2279663085939	-1134.086791992188	538.1160278320312	943.4315185546876	-1270.321166992188	294.0898742675781	855.7384033203126	-1206.673583984375	155.7352447509766	761.7393798828126	-1215.191284179688	131.1049041748047	737.5419311523439	-1237.49951171875	121.4846649169922	731.7222900390626	-1188.85009765625	89.23173522949219	687.5115966796876	-1225.970703125	55.23168182373047	635.9005126953126	-1224.476318359375	20.64428329467773	626.2998046875001	-1240.286987304688	19.91302680969238	622.4965209960939	-1190.05029296875	-13.80845642089844	572.8341674804689	-1220.492919921875	-56.78129959106445	446.9400024414063	-1244.390625	-52.82787704467773	446.1679077148438	-1193.2021484375	-61.28938674926758	385.4506530761719	-1218.900024414062	157.5813446044922	360.051239013672	-1512.048217773438	213.3199920654297	311.1579895019532	-1539.104736328125	209.8278503417969	361.2063598632814	-1543.948852539062	254.7040100097656	290.0429687500001	-1620.610717773438	191.6157379150391	254.1079711914063	-1587.516479492188	233.4396667480469	233.6880187988282	-1606.670532226562	113.4835891723633	71.94316101074227	-1472.285888671875	317.8519592285156	46.60345458984384	-1542.421997070312	240.2599029541016	29.21086311340342	-1625.987548828125	139.7170562744141	349.4332275390626	-919.13818359375	176.1173248291016	412.3179016113282	-885.220458984375	189.1867980957031	364.2660217285157	-884.1272583007812	232.5221405029297	303.2612609863282	-807.57470703125	232.1236877441406	224.3701171875001	-809.1387939453125	200.6179046630859	255.5081176757813	-831.75390625	99.05653381347656	67.14807891845709	-970.7357177734375	286.8828735351562	44.63784408569342	-884.7055053710938	204.5489349365234	41.66085052490239	-805.9657592773438	401.7672729492188	687.9141235351564	-1210.927368164062	342.5816345214844	554.5682983398439	-1211.14111328125	356.1260070800781	806.9437255859376	-1369.709838867188	268.1305847167969	726.4014892578126	-1496.230224609375	217.7668914794922	690.3419799804689	-1520.056396484375	263.8249206542969	679.5092773437501	-1541.74169921875	287.1007385253906	611.8806152343751	-1625.126220703125	360.0089721679688	579.7636108398439	-1616.922973632812	345.8776245117188	629.0150756835939	-1617.31396484375	435.5377197265625	679.7209472656251	-1601.686279296875	421.1391296386719	683.0785522460939	-1525.009521484375	343.2267456054688	802.0180053710939	-1060.887329101562	255.8345947265625	729.8632202148439	-937.8809204101562	242.8315734863281	691.1025390625	-886.535888671875	205.7242736816406	689.8510131835938	-922.9574584960938	289.3108215332031	640.0307006835938	-785.5343627929688	315.3026733398438	714.4362182617188	-797.5784912109375	342.4894104003906	671.9774169921875	-793.275634765625	404.6427917480469	740.404296875	-813.4320678710938	397.2945861816406	738.8867797851562	-891.7076416015625	
444	2.215	960.6964721679688	36.22639083862317	-1933.541381835938	1063.187622070312	32.89411544799804	86.65159606933594	573.3296508789062	910.9325561523439	-1196.9375	529.087890625	947.0460815429689	-1134.172973632812	537.7626953125	943.2244873046876	-1270.401245117188	293.8174743652344	855.3316040039064	-1206.747314453125	155.5459442138672	761.2371826171876	-1215.215942382812	130.9338226318359	737.0216674804689	-1237.512573242188	121.3100204467773	731.2115478515626	-1188.87353515625	89.09055328369141	686.9722900390626	-1225.9638671875	55.10279846191406	635.3424072265626	-1224.482788085938	20.50997734069824	625.6925048828126	-1240.2861328125	19.76599311828613	621.8905639648439	-1190.0595703125	-13.88344287872314	572.1902465820314	-1220.490600585938	-56.7241325378418	446.1986083984376	-1244.38232421875	-52.77350997924805	445.4375610351563	-1193.197265625	-61.12866973876953	384.6752929687501	-1218.879516601562	157.7720642089844	359.7014465332032	-1511.976196289062	213.6072692871094	310.8870849609376	-1539.078857421875	210.0341033935547	360.9366455078126	-1543.88818359375	254.8721618652344	290.0169372558595	-1620.486328125	191.7616577148438	254.1107025146485	-1587.401245117188	233.5740966796875	233.6696929931641	-1606.560302734375	113.5295181274414	71.92984771728524	-1472.216430664062	317.878662109375	46.56836318969736	-1542.39208984375	240.2561187744141	29.2479248046876	-1625.952514648438	139.8458404541016	349.0651855468751	-919.085693359375	176.1380310058594	412.0255432128907	-885.201171875	189.2742309570312	363.9920959472657	-884.062744140625	232.5721893310547	303.2247314453126	-807.55908203125	232.1777648925781	224.3299560546876	-809.136962890625	200.6763305664062	255.4752044677735	-831.7520751953125	99.07221221923828	67.16410064697271	-970.7587890625	286.885009765625	44.6298446655274	-884.7171630859375	204.5589599609375	41.68460083007817	-805.96435546875	401.6301574707031	687.5836181640626	-1210.968383789062	342.4867248535156	554.3106079101564	-1211.113159179688	355.8497924804688	806.5289306640626	-1369.801879882812	267.8794860839844	725.9161376953126	-1496.283935546875	217.54345703125	689.8154296875001	-1520.099243164062	263.5995788574219	679.0379028320314	-1541.811279296875	286.9214782714844	611.4467163085939	-1625.217407226562	359.8605651855469	579.3974609375001	-1617.04052734375	345.6827392578125	628.6376953125001	-1617.4150390625	435.2962036132812	679.4275512695314	-1601.792602539062	420.9131164550781	682.7574462890626	-1525.1171875	343.0379943847656	801.6619873046876	-1060.9296875	255.6869201660156	729.5128173828126	-937.89111328125	242.6976776123047	690.7669067382812	-886.52685546875	205.5946197509766	689.4873046875	-922.948974609375	289.2001037597656	639.7588500976562	-785.5095825195312	315.1632690429688	714.167236328125	-797.5949096679688	342.3674011230469	671.7198486328125	-793.2703857421875	404.4898986816406	740.1669311523438	-813.455078125	397.1498718261719	738.5845336914062	-891.7380981445312	
445	2.22	960.6957397460938	36.22696304321301	-1933.540649414062	1063.187622070312	32.89405059814452	86.65159606933594	572.9822998046875	910.7804565429689	-1197.013061523438	528.6944580078125	946.8728027343751	-1134.27001953125	537.3973999023438	943.0209350585939	-1270.49169921875	293.5369567871094	854.9252929687501	-1206.821166992188	155.3508453369141	760.7330932617189	-1215.238403320312	130.7570648193359	736.4995727539064	-1237.523315429688	121.1286392211914	730.6975097656251	-1188.893432617188	88.94448852539062	686.4293823242189	-1225.955322265625	54.97344970703125	634.7846679687501	-1224.490966796875	20.37206649780273	625.0843505859376	-1240.286376953125	19.61466789245605	621.2837524414064	-1190.069580078125	-13.96064281463623	571.5454101562501	-1220.489868164062	-56.66889190673828	445.4558715820313	-1244.37744140625	-52.7219123840332	444.7061767578126	-1193.195068359375	-60.97220993041992	383.9011840820313	-1218.863037109375	157.9735107421875	359.3444824218751	-1511.90185546875	213.9012756347656	310.6109313964845	-1539.049682617188	210.2491302490234	360.6619567871095	-1543.823852539062	255.0479888916016	289.9867248535157	-1620.359252929688	191.9144897460938	254.110565185547	-1587.283203125	233.7147216796875	233.6478271484376	-1606.447631835938	113.5764007568359	71.91626739501962	-1472.145385742188	317.9063720703125	46.53106307983408	-1542.361206054688	240.2528533935547	29.2855167388917	-1625.91748046875	139.9734344482422	348.6943054199219	-919.0357666015625	176.1577301025391	411.7307128906251	-885.1853637695312	189.3612670898438	363.7158813476563	-884.0012817382812	232.6230010986328	303.1883544921876	-807.5468139648438	232.2329559326172	224.290267944336	-809.137939453125	200.7355346679688	255.4418487548829	-831.75341796875	99.08917236328125	67.17887878417974	-970.7822875976562	286.88671875	44.62125015258795	-884.7291870117188	204.5693664550781	41.70881652832036	-805.9634399414062	401.4894104003906	687.2548828125001	-1211.0087890625	342.401123046875	554.0281982421876	-1211.085571289062	355.5701904296875	806.1116333007814	-1369.893920898438	267.6229858398438	725.4261474609376	-1496.336181640625	217.3140563964844	689.2833862304689	-1520.13720703125	263.3681030273438	678.5610351562501	-1541.877807617188	286.7339172363281	611.0073242187501	-1625.309326171875	359.7047119140625	579.0246582031251	-1617.162353515625	345.4798583984375	628.2544555664064	-1617.518798828125	435.0480346679688	679.1275634765626	-1601.907958984375	420.6846008300781	682.4312133789064	-1525.232788085938	342.8401489257812	801.3084106445314	-1060.972045898438	255.5343780517578	729.1606445312501	-937.9011840820312	242.560302734375	690.4302978515625	-886.5161743164062	205.4620208740234	689.1204223632812	-922.939453125	289.0895690917969	639.4892578125	-785.4861450195312	315.0198059082031	713.9009399414062	-797.6149291992188	342.2447204589844	671.4661865234375	-793.2681884765625	404.3316040039062	739.9366455078125	-813.485107421875	397	738.2844848632812	-891.7745971679688	
446	2.225	960.6951904296875	36.22714996337903	-1933.539916992188	1063.187744140625	32.89400100708007	86.65155029296875	572.626953125	910.6345214843751	-1197.098388671875	528.2954711914062	946.7070922851564	-1134.377197265625	537.0205078125	942.8206787109376	-1270.591186523438	293.2486877441406	854.5196533203126	-1206.894775390625	155.1506195068359	760.2270507812501	-1215.259033203125	130.5746612548828	735.9760742187501	-1237.532348632812	120.9406509399414	730.1803588867189	-1188.909545898438	88.79341125488281	685.8833007812501	-1225.945678710938	54.84383010864258	634.2279052734376	-1224.501098632812	20.2304630279541	624.4755249023439	-1240.288940429688	19.46035957336426	620.6768188476564	-1190.079833984375	-14.04006958007812	570.9008178710939	-1220.491088867188	-56.61598587036133	444.7130432128907	-1244.376098632812	-52.67375946044922	443.9748535156251	-1193.195922851562	-60.82124710083008	383.1302490234376	-1218.8505859375	158.1835784912109	358.9814758300782	-1511.825805664062	214.1992950439453	310.3305969238282	-1539.018310546875	210.4705200195312	360.3833312988282	-1543.75634765625	255.2294769287109	289.9525451660157	-1620.230590820312	192.0724487304688	254.1074371337891	-1587.16357421875	233.85986328125	233.6226043701173	-1606.33349609375	113.6237487792969	71.90287017822274	-1472.072875976562	317.9348449707031	46.49201583862314	-1542.329467773438	240.2500610351562	29.32329368591319	-1625.8828125	140.0986633300781	348.3215942382813	-918.9886474609375	176.1757354736328	411.4343872070313	-885.1735229492188	189.4468841552734	363.4382629394532	-883.943115234375	232.6738433837891	303.1520996093751	-807.5377197265625	232.2886657714844	224.2510375976563	-809.1416015625	200.7947692871094	255.4079589843751	-831.7576904296875	99.10737609863281	67.19210815429693	-970.80615234375	286.8879089355469	44.61210632324224	-884.7415771484375	204.5800476074219	41.73301696777349	-805.9632568359375	401.3453063964844	686.9281005859376	-1211.048217773438	342.3265686035156	553.7188110351564	-1211.059448242188	355.2880554199219	805.6924438476564	-1369.985229492188	267.3619689941406	724.9317626953126	-1496.386596679688	217.0793151855469	688.7463989257814	-1520.170288085938	263.1312866210938	678.0781860351564	-1541.940673828125	286.5382080078125	610.5618896484376	-1625.400390625	359.5415954589844	578.6448974609376	-1617.287353515625	345.2691955566406	627.8649902343751	-1617.623901367188	434.7935791015625	678.8206787109376	-1602.03173828125	420.4543151855469	682.0993652343751	-1525.355590820312	342.6328735351562	800.9568481445314	-1061.013793945312	255.3771209716797	728.8058471679689	-937.9109497070312	242.4197692871094	690.0917358398438	-886.5035400390625	205.3267364501953	688.7494506835938	-922.9285278320312	288.9798583984375	639.2208251953125	-785.4639892578125	314.8727111816406	713.636474609375	-797.638427734375	342.1218872070312	671.2154541015625	-793.2688598632812	404.1683959960938	739.712646484375	-813.5215454101562	396.8451538085938	737.986328125	-891.8168334960938	
